<?xml version="1.0" encoding="UTF-8" standalone="no"?>
<!-- Created with Inkscape (http://www.inkscape.org/) -->

<svg
   width="135.99998"
   height="27.999992"
   viewBox="0 0 35.983329 7.4083313"
   version="1.1"
   id="svg1"
   inkscape:version="1.3.2 (091e20e, 2023-11-25, custom)"
   sodipodi:docname="laatiko font.svg"
   xmlns:inkscape="http://www.inkscape.org/namespaces/inkscape"
   xmlns:sodipodi="http://sodipodi.sourceforge.net/DTD/sodipodi-0.dtd"
   xmlns="http://www.w3.org/2000/svg"
   xmlns:svg="http://www.w3.org/2000/svg">
  <sodipodi:namedview
     id="namedview1"
     pagecolor="#ffffff"
     bordercolor="#000000"
     borderopacity="0.25"
     inkscape:showpageshadow="2"
     inkscape:pageopacity="0.0"
     inkscape:pagecheckerboard="true"
     inkscape:deskcolor="#d1d1d1"
     inkscape:document-units="px"
     showgrid="true"
     borderlayer="false"
     inkscape:zoom="0.50000003"
     inkscape:cx="584.99996"
     inkscape:cy="176.99999"
     inkscape:window-width="1920"
     inkscape:window-height="1017"
     inkscape:window-x="-8"
     inkscape:window-y="-8"
     inkscape:window-maximized="1"
     inkscape:current-layer="layer2">
    <inkscape:grid
       id="grid1"
       units="px"
       originx="-14.816668"
       originy="-3.7041676"
       spacingx="0.26458333"
       spacingy="0.26458333"
       empcolor="#0099e5"
       empopacity="0.30196078"
       color="#0099e5"
       opacity="0.14901961"
       empspacing="8"
       dotted="true"
       gridanglex="30"
       gridanglez="30"
       visible="true" />
    <inkscape:grid
       id="grid2"
       units="px"
       originx="-14.816668"
       originy="-3.7041676"
       spacingx="2.1166667"
       spacingy="2.1166667"
       empcolor="#0099e5"
       empopacity="0.30196078"
       color="#0099e5"
       opacity="0.14901961"
       empspacing="64"
       dotted="false"
       gridanglex="30"
       gridanglez="30"
       visible="true" />
  </sodipodi:namedview>
  <defs
     id="defs1" />
  <g
     inkscape:groupmode="layer"
     id="layer2"
     inkscape:label="guides 1"
     transform="translate(-14.816668,-3.7041676)">
    <path
       id="rect1-9"
       style="fill:none;stroke:#000000;stroke-width:1.05833;stroke-linecap:square;stroke-linejoin:round;stroke-dasharray:none"
       d="m 15.345833,6.3500005 v 4.2333325 h 1.5875 c 0.879474,0 1.5875,-0.7080255 1.5875,-1.5874995 V 5.8208336 c 0,-0.879474 -0.708026,-1.5875 -1.5875,-1.5875 h -1.5875"
       sodipodi:nodetypes="ccssssc"
       inkscape:export-filename="DesCodeFullLogo.svg"
       inkscape:export-xdpi="1536"
       inkscape:export-ydpi="1536" />
    <path
       id="rect1-0-7"
       style="fill:none;stroke:#000000;stroke-width:1.05833;stroke-linecap:square;stroke-linejoin:round;stroke-dasharray:none"
       d="M 34.395832,8.4666662 V 4.2333327 h -1.5875 c -0.879474,0 -1.5875,0.708026 -1.5875,1.5875 v 3.1750002 c 0,0.8794744 0.708027,1.5875001 1.5875,1.5875001 h 1.5875"
       sodipodi:nodetypes="ccssssc" />
    <path
       id="path3"
       style="fill:none;stroke:#000000;stroke-width:1.05833;stroke-linecap:square;stroke-linejoin:round;stroke-dasharray:none"
       d="M 23.8125,4.2333333 H 22.225 c -0.876752,-1e-7 -1.5875,0.710748 -1.5875,1.5875 0,0.876752 0.710748,1.5875001 1.5875,1.5875 h 1.5875"
       sodipodi:nodetypes="csssc" />
    <path
       id="path3-2"
       style="fill:none;stroke:#000000;stroke-width:1.05833;stroke-linecap:square;stroke-linejoin:round;stroke-dasharray:none"
       d="m 23.812499,7.4083329 h -1.5875 c -0.876752,-1e-7 -1.5875,0.710748 -1.5875,1.5875 0,0.8767516 0.710748,1.5875011 1.5875,1.5875001 h 1.5875"
       sodipodi:nodetypes="csssc" />
    <path
       id="rect1-9-9"
       style="fill:none;stroke:#000000;stroke-width:1.05833;stroke-linecap:square;stroke-linejoin:round;stroke-dasharray:none"
       d="m 41.804165,6.3500004 v 4.2333326 h 1.5875 c 0.879474,0 1.5875,-0.7080256 1.5875,-1.5874996 V 5.8208335 c 0,-0.879474 -0.708026,-1.5875 -1.5875,-1.5875 h -1.5875"
       sodipodi:nodetypes="ccssssc" />
    <path
       id="path3-9"
       style="fill:none;stroke:#000000;stroke-width:1.05833;stroke-linecap:square;stroke-linejoin:round;stroke-dasharray:none"
       d="m 50.270832,4.2333332 h -1.5875 c -0.876752,-10e-8 -1.5875,0.710748 -1.5875,1.5875 0,0.876752 0.710748,1.5875001 1.5875,1.5875 h 1.5875"
       sodipodi:nodetypes="csssc" />
    <path
       id="path3-2-0"
       style="fill:none;stroke:#000000;stroke-width:1.05833;stroke-linecap:square;stroke-linejoin:round;stroke-dasharray:none"
       d="m 50.270831,7.4083328 h -1.5875 c -0.876752,-1e-7 -1.5875,0.710748 -1.5875,1.5875 0,0.8767516 0.710748,1.5875012 1.5875,1.5875002 h 1.5875"
       sodipodi:nodetypes="csssc" />
    <path
       id="path3-6"
       style="fill:none;stroke:#000000;stroke-width:1.05833;stroke-linecap:square;stroke-linejoin:round;stroke-dasharray:none"
       d="m 29.104165,4.2333331 h -1.5875 c -0.876752,-1e-7 -1.5875,0.710748 -1.5875,1.5875 0,0.876752 0.710748,1.5875001 1.5875,1.5875 v -3e-7 c 0.876752,-1e-6 1.5875,0.710748 1.5875,1.5875 0,0.876752 -0.710748,1.5875002 -1.5875,1.5875002 h -1.5875"
       sodipodi:nodetypes="cssccssc" />
    <rect
       style="fill:none;stroke:#000000;stroke-width:1.05833;stroke-linecap:square;stroke-linejoin:round;stroke-dasharray:none"
       id="rect3"
       width="3.174999"
       height="6.3500009"
       x="36.512497"
       y="4.2333326"
       ry="1.5874995" />
  </g>
</svg>
